<?xml version="1.0" standalone="no"?>
        <!DOCTYPE svg PUBLIC "-//W3C//DTD SVG 1.1//EN" 
        "http://www.w3.org/Graphics/SVG/1.1/DTD/svg11.dtd"> <svg xmlns="http://www.w3.org/2000/svg" xmlns:xlink="http://www.w3.org/1999/xlink" width="99" zoomAndPan="magnify" viewBox="0 0 30 30.000001" height="99" preserveAspectRatio="xMidYMid meet" version="1.0" id="IconChangeColor"><defs><clipPath id="id1"><path d="M 2.128906 5.222656 L 27.53125 5.222656 L 27.53125 15 L 2.128906 15 Z M 2.128906 5.222656 " clip-rule="nonzero" id="mainIconPathAttribute"></path></clipPath><clipPath id="id2"><path d="M 2.128906 14 L 27.53125 14 L 27.53125 23.371094 L 2.128906 23.371094 Z M 2.128906 14 " clip-rule="nonzero" id="mainIconPathAttribute"></path></clipPath></defs><g clip-path="url(#id1)"><path fill="rgb(86.268616%, 12.159729%, 14.898682%)" d="M 24.703125 5.222656 L 4.957031 5.222656 C 3.398438 5.222656 2.132812 6.472656 2.132812 8.015625 L 2.132812 14.296875 L 27.523438 14.296875 L 27.523438 8.015625 C 27.523438 6.472656 26.261719 5.222656 24.703125 5.222656 Z M 24.703125 5.222656 " fill-opacity="1" fill-rule="nonzero" id="mainIconPathAttribute"></path></g><g clip-path="url(#id2)"><path fill="rgb(93.328857%, 93.328857%, 93.328857%)" d="M 27.523438 20.578125 C 27.523438 22.121094 26.261719 23.371094 24.703125 23.371094 L 4.957031 23.371094 C 3.398438 23.371094 2.132812 22.121094 2.132812 20.578125 L 2.132812 14.296875 L 27.523438 14.296875 Z M 27.523438 20.578125 " fill-opacity="1" fill-rule="nonzero" id="mainIconPathAttribute"></path></g></svg> 